<svg width="1440" height="1024" viewBox="0 0 1440 1024" fill="none" xmlns="http://www.w3.org/2000/svg">
<g clip-path="url(#clip0_3_7)">
<rect width="1440" height="1024" fill="#161616"/>
<line x1="-167.531" y1="602.14" x2="1344.05" y2="602.14" stroke="#EDEDED" stroke-opacity="0.01" stroke-width="1.2607"/>
<line x1="-167.531" y1="924.878" x2="1344.05" y2="924.878" stroke="#EDEDED" stroke-opacity="0.01" stroke-width="1.2607"/>
<line x1="-167.531" y1="279.402" x2="1344.05" y2="279.402" stroke="#EDEDED" stroke-opacity="0.01" stroke-width="1.2607"/>
<line x1="-167.531" y1="440.77" x2="1344.05" y2="440.77" stroke="#EDEDED" stroke-opacity="0.01" stroke-width="1.2607"/>
<line x1="-167.531" y1="763.508" x2="1344.05" y2="763.508" stroke="#EDEDED" stroke-opacity="0.01" stroke-width="1.2607"/>
<line x1="-167.531" y1="118.032" x2="1344.05" y2="118.032" stroke="#EDEDED" stroke-opacity="0.01" stroke-width="1.2607"/>
<line x1="-167.531" y1="521.455" x2="1344.05" y2="521.455" stroke="#EDEDED" stroke-opacity="0.01" stroke-width="1.2607"/>
<line x1="-167.531" y1="844.193" x2="1344.05" y2="844.193" stroke="#EDEDED" stroke-opacity="0.01" stroke-width="1.2607"/>
<line x1="-167.531" y1="198.717" x2="1344.05" y2="198.717" stroke="#EDEDED" stroke-opacity="0.01" stroke-width="1.2607"/>
<line x1="-167.531" y1="1005.56" x2="1344.05" y2="1005.56" stroke="#EDEDED" stroke-opacity="0.01" stroke-width="1.2607"/>
<line x1="-167.531" y1="360.085" x2="1344.05" y2="360.085" stroke="#EDEDED" stroke-opacity="0.01" stroke-width="1.2607"/>
<line x1="-167.531" y1="682.825" x2="1344.05" y2="682.825" stroke="#EDEDED" stroke-opacity="0.01" stroke-width="1.2607"/>
<line x1="-167.531" y1="37.3466" x2="1344.05" y2="37.3466" stroke="#EDEDED" stroke-opacity="0.01" stroke-width="1.2607"/>
<mask id="mask0_3_7" style="mask-type:alpha" maskUnits="userSpaceOnUse" x="-325" y="-236" width="1956" height="1440">
<path d="M763.16 305.828C763.16 453.088 665.796 572.465 545.69 572.465C425.584 572.465 -324.822 55.9679 -324.822 -91.292C-324.822 -238.552 753.366 -35.8213 873.471 -35.8213C993.577 -35.8213 763.16 158.568 763.16 305.828Z" fill="url(#paint0_linear_3_7)"/>
<path d="M847.625 936.853C847.625 1084.11 750.26 1203.49 630.155 1203.49C510.049 1203.49 -159.042 1169.17 -159.042 1021.91C-159.042 874.645 -109.584 525.821 10.5219 525.821C130.627 525.821 847.625 789.593 847.625 936.853Z" fill="url(#paint1_radial_3_7)"/>
<path d="M1094.32 306.232C1418.39 598.92 1268.69 451.832 1547.03 444.422C1590.7 452.833 1664.82 453.233 1612.01 387.542C1546 305.427 1567.27 247.429 1484.77 157.965C1402.27 68.5011 1352.02 -22.3927 1227.47 -164.683C1102.91 -306.973 1093.33 -189.679 952.908 -200.798C812.488 -211.917 876.534 -194.26 682.79 12.1973C489.046 218.654 770.255 13.5432 1094.32 306.232Z" fill="#D9D9D9"/>
<path d="M788.374 766.614C354.694 817.672 563.97 801.913 386.212 1016.23C351.122 1043.55 301.997 1099.06 386.212 1102.59C491.48 1107 521.107 1161.21 642.764 1158.06C764.421 1154.91 865.907 1176.97 1055.01 1176.97C1244.12 1176.97 1162.17 1092.5 1263.03 994.169C1363.88 895.835 1308.41 932.395 1280.68 650.629C1252.94 368.864 1222.05 715.555 788.374 766.614Z" fill="#D9D9D9"/>
</mask>
<g mask="url(#mask0_3_7)">
<line x1="525.225" y1="-71.7029" x2="525.225" y2="1095.7" stroke="#EDEDED" stroke-opacity="0.01" stroke-width="1.2607"/>
<line x1="202.485" y1="-71.7031" x2="202.485" y2="1095.7" stroke="#EDEDED" stroke-opacity="0.01" stroke-width="1.2607"/>
<line x1="847.961" y1="-71.7029" x2="847.961" y2="1095.7" stroke="#EDEDED" stroke-opacity="0.01" stroke-width="1.2607"/>
<line x1="1170.7" y1="-71.7029" x2="1170.7" y2="1095.7" stroke="#EDEDED" stroke-opacity="0.01" stroke-width="1.2607"/>
<line x1="41.1142" y1="-71.7029" x2="41.1142" y2="1095.7" stroke="#EDEDED" stroke-opacity="0.01" stroke-width="1.2607"/>
<line x1="686.591" y1="-71.7029" x2="686.591" y2="1095.7" stroke="#EDEDED" stroke-opacity="0.01" stroke-width="1.2607"/>
<line x1="363.855" y1="-71.7029" x2="363.855" y2="1095.7" stroke="#EDEDED" stroke-opacity="0.01" stroke-width="1.2607"/>
<line x1="1009.33" y1="-71.7031" x2="1009.33" y2="1095.7" stroke="#EDEDED" stroke-opacity="0.01" stroke-width="1.2607"/>
<line x1="1332.07" y1="-71.7029" x2="1332.07" y2="1095.7" stroke="#EDEDED" stroke-opacity="0.01" stroke-width="1.2607"/>
<line x1="605.908" y1="-71.7031" x2="605.908" y2="1095.7" stroke="#EDEDED" stroke-opacity="0.01" stroke-width="1.2607"/>
<line x1="283.167" y1="-71.7029" x2="283.167" y2="1095.7" stroke="#EDEDED" stroke-opacity="0.01" stroke-width="1.2607"/>
<line x1="928.648" y1="-71.7029" x2="928.648" y2="1095.7" stroke="#EDEDED" stroke-opacity="0.01" stroke-width="1.2607"/>
<line x1="1251.38" y1="-71.7029" x2="1251.38" y2="1095.7" stroke="#EDEDED" stroke-opacity="0.01" stroke-width="1.2607"/>
<line x1="121.802" y1="-71.7029" x2="121.802" y2="1095.7" stroke="#EDEDED" stroke-opacity="0.01" stroke-width="1.2607"/>
<line x1="767.278" y1="-71.7029" x2="767.278" y2="1095.7" stroke="#EDEDED" stroke-opacity="0.01" stroke-width="1.2607"/>
<line x1="444.538" y1="-71.7029" x2="444.538" y2="1095.7" stroke="#EDEDED" stroke-opacity="0.01" stroke-width="1.2607"/>
<line x1="1090.01" y1="-71.7029" x2="1090.01" y2="1095.7" stroke="#EDEDED" stroke-opacity="0.01" stroke-width="1.2607"/>
<line x1="1412.75" y1="-71.7031" x2="1412.75" y2="1095.7" stroke="#EDEDED" stroke-opacity="0.01" stroke-width="1.2607"/>
</g>
</g>
<defs>
<linearGradient id="paint0_linear_3_7" x1="194.586" y1="-17.5411" x2="649.067" y2="224.513" gradientUnits="userSpaceOnUse">
<stop stop-color="white"/>
<stop offset="1" stop-color="white" stop-opacity="0"/>
</linearGradient>
<radialGradient id="paint1_radial_3_7" cx="0" cy="0" r="1" gradientUnits="userSpaceOnUse" gradientTransform="translate(159.914 943.112) rotate(-29.3932) scale(777.019 1335.47)">
<stop stop-color="white"/>
<stop offset="1" stop-color="white" stop-opacity="0"/>
</radialGradient>
<clipPath id="clip0_3_7">
<rect width="1440" height="1024" fill="white"/>
</clipPath>
</defs>
</svg>
